<svg xmlns="http://www.w3.org/2000/svg" xmlns:xlink="http://www.w3.org/1999/xlink" width="300" zoomAndPan="magnify" viewBox="0 0 224.87999 60" height="80" preserveAspectRatio="xMidYMid meet" version="1.0"><defs><g/><clipPath id="eb10ab5f37"><path d="M 5.996094 6.019531 L 77.957031 6.019531 L 77.957031 29.242188 L 5.996094 29.242188 Z M 5.996094 6.019531 " clip-rule="nonzero"/></clipPath><clipPath id="ebaa3d0003"><path d="M 71.863281 15.371094 C 71.457031 15.371094 71.117188 15.640625 71.003906 16.011719 L 60.847656 16.011719 L 57.359375 12.492188 L 53.152344 12.492188 L 50.628906 9.945312 L 47.214844 9.945312 L 47.214844 10.433594 L 50.429688 10.433594 L 52.953125 12.980469 L 57.160156 12.980469 L 60.648438 16.496094 L 70.992188 16.496094 C 71.089844 16.886719 71.441406 17.175781 71.863281 17.175781 C 72.355469 17.175781 72.757812 16.773438 72.757812 16.273438 C 72.757812 15.777344 72.355469 15.371094 71.863281 15.371094 Z M 19.960938 10.28125 C 20.542969 10.28125 21.039062 9.902344 21.21875 9.375 L 22.238281 9.375 L 24.761719 6.828125 L 29.636719 6.828125 L 31.640625 8.851562 L 36.738281 8.851562 L 38.308594 8.042969 L 31.972656 8.042969 L 29.96875 6.019531 L 24.429688 6.019531 L 21.90625 8.566406 L 21.242188 8.566406 C 21.082031 8.003906 20.570312 7.59375 19.960938 7.59375 C 19.226562 7.59375 18.628906 8.195312 18.628906 8.9375 C 18.628906 9.679688 19.226562 10.28125 19.960938 10.28125 Z M 52.3125 8.851562 L 54.316406 6.828125 L 59.195312 6.828125 L 61.71875 9.375 L 62.738281 9.375 C 62.917969 9.902344 63.410156 10.28125 63.996094 10.28125 C 64.730469 10.28125 65.324219 9.679688 65.324219 8.9375 C 65.324219 8.195312 64.730469 7.59375 63.996094 7.59375 C 63.386719 7.59375 62.871094 8.003906 62.714844 8.566406 L 62.050781 8.566406 L 59.527344 6.019531 L 53.984375 6.019531 L 51.980469 8.042969 L 44.96875 8.042969 L 47.214844 8.851562 Z M 6.890625 14.304688 C 7.296875 14.304688 7.640625 14.03125 7.75 13.660156 L 21.691406 13.660156 L 24.375 10.953125 L 30.605469 10.953125 L 30.605469 10.46875 L 24.175781 10.46875 L 21.492188 13.175781 L 7.757812 13.175781 C 7.660156 12.785156 7.308594 12.5 6.890625 12.5 C 6.398438 12.5 5.996094 12.902344 5.996094 13.402344 C 5.996094 13.902344 6.398438 14.304688 6.890625 14.304688 Z M 31.640625 26.414062 L 29.636719 28.433594 L 24.761719 28.433594 L 22.238281 25.886719 L 21.21875 25.886719 C 21.039062 25.363281 20.542969 24.984375 19.960938 24.984375 C 19.226562 24.984375 18.628906 25.585938 18.628906 26.328125 C 18.628906 27.070312 19.226562 27.671875 19.960938 27.671875 C 20.570312 27.671875 21.082031 27.257812 21.242188 26.695312 L 21.90625 26.695312 L 24.429688 29.242188 L 29.96875 29.242188 L 31.972656 27.222656 L 39.585938 27.222656 L 36.738281 26.414062 Z M 77.0625 20.957031 C 76.660156 20.957031 76.316406 21.230469 76.207031 21.601562 L 62.265625 21.601562 L 59.582031 24.3125 L 53.347656 24.3125 L 53.347656 24.796875 L 59.78125 24.796875 L 62.464844 22.085938 L 76.195312 22.085938 C 76.296875 22.476562 76.648438 22.765625 77.0625 22.765625 C 77.558594 22.765625 77.957031 22.359375 77.957031 21.863281 C 77.957031 21.363281 77.558594 20.957031 77.0625 20.957031 Z M 63.996094 24.984375 C 63.410156 24.984375 62.917969 25.363281 62.738281 25.886719 L 61.71875 25.886719 L 59.195312 28.433594 L 54.316406 28.433594 L 52.3125 26.414062 L 47.214844 26.414062 L 44.289062 27.222656 L 51.980469 27.222656 L 53.984375 29.242188 L 59.527344 29.242188 L 62.050781 26.695312 L 62.714844 26.695312 C 62.871094 27.257812 63.386719 27.671875 63.996094 27.671875 C 64.730469 27.671875 65.324219 27.070312 65.324219 26.328125 C 65.324219 25.585938 64.730469 24.984375 63.996094 24.984375 Z M 24.175781 24.796875 L 30.605469 24.796875 L 30.605469 24.3125 L 24.375 24.3125 L 21.691406 21.601562 L 7.75 21.601562 C 7.640625 21.230469 7.296875 20.957031 6.890625 20.957031 C 6.398438 20.957031 5.996094 21.363281 5.996094 21.863281 C 5.996094 22.359375 6.398438 22.765625 6.890625 22.765625 C 7.308594 22.765625 7.660156 22.476562 7.757812 22.085938 L 21.492188 22.085938 Z M 50.15625 22.757812 L 52.160156 20.734375 L 54.519531 20.734375 C 54.679688 21.28125 55.183594 21.675781 55.777344 21.675781 C 56.503906 21.675781 57.089844 21.082031 57.089844 20.351562 C 57.089844 19.617188 56.503906 19.023438 55.777344 19.023438 C 55.199219 19.023438 54.707031 19.402344 54.53125 19.925781 L 51.828125 19.925781 L 49.824219 21.949219 L 49.558594 21.949219 C 49.402344 22.226562 49.230469 22.496094 49.046875 22.757812 Z M 49.824219 13.316406 L 51.828125 15.335938 L 54.53125 15.335938 C 54.707031 15.859375 55.199219 16.238281 55.777344 16.238281 C 56.503906 16.238281 57.089844 15.644531 57.089844 14.914062 C 57.089844 14.179688 56.503906 13.585938 55.777344 13.585938 C 55.183594 13.585938 54.679688 13.984375 54.519531 14.527344 L 52.160156 14.527344 L 50.15625 12.507812 L 49.046875 12.507812 C 49.230469 12.765625 49.402344 13.035156 49.558594 13.316406 Z M 59.78125 10.46875 L 53.347656 10.46875 L 53.347656 10.953125 L 59.582031 10.953125 L 62.265625 13.660156 L 76.207031 13.660156 C 76.316406 14.03125 76.660156 14.304688 77.0625 14.304688 C 77.558594 14.304688 77.957031 13.902344 77.957031 13.402344 C 77.957031 12.902344 77.558594 12.5 77.0625 12.5 C 76.648438 12.5 76.296875 12.785156 76.195312 13.175781 L 62.464844 13.175781 Z M 28.179688 16.238281 C 28.757812 16.238281 29.25 15.859375 29.425781 15.335938 L 32.125 15.335938 L 34.128906 13.316406 L 34.394531 13.316406 C 34.550781 13.035156 34.722656 12.765625 34.910156 12.507812 L 33.796875 12.507812 L 31.792969 14.527344 L 29.4375 14.527344 C 29.273438 13.984375 28.773438 13.585938 28.179688 13.585938 C 27.453125 13.585938 26.863281 14.179688 26.863281 14.914062 C 26.863281 15.644531 27.453125 16.238281 28.179688 16.238281 Z M 36.738281 9.945312 L 33.328125 9.945312 L 30.800781 12.492188 L 26.59375 12.492188 L 23.109375 16.011719 L 12.949219 16.011719 C 12.839844 15.640625 12.496094 15.371094 12.09375 15.371094 C 11.601562 15.371094 11.199219 15.777344 11.199219 16.273438 C 11.199219 16.773438 11.601562 17.175781 12.09375 17.175781 C 12.511719 17.175781 12.863281 16.886719 12.960938 16.496094 L 23.308594 16.496094 L 26.792969 12.980469 L 31 12.980469 L 33.527344 10.433594 L 36.738281 10.433594 Z M 23.308594 18.769531 L 12.960938 18.769531 C 12.863281 18.375 12.511719 18.085938 12.09375 18.085938 C 11.601562 18.085938 11.199219 18.488281 11.199219 18.988281 C 11.199219 19.488281 11.601562 19.890625 12.09375 19.890625 C 12.496094 19.890625 12.839844 19.621094 12.949219 19.253906 L 23.109375 19.253906 L 26.59375 22.769531 L 30.800781 22.769531 L 33.328125 25.316406 L 36.738281 25.316406 L 36.738281 24.832031 L 33.527344 24.832031 L 31 22.285156 L 26.792969 22.285156 Z M 47.214844 25.316406 L 50.628906 25.316406 L 53.152344 22.769531 L 57.359375 22.769531 L 60.847656 19.253906 L 71.003906 19.253906 C 71.117188 19.621094 71.457031 19.890625 71.863281 19.890625 C 72.355469 19.890625 72.757812 19.488281 72.757812 18.988281 C 72.757812 18.488281 72.355469 18.085938 71.863281 18.085938 C 71.441406 18.085938 71.089844 18.375 70.992188 18.769531 L 60.648438 18.769531 L 57.160156 22.285156 L 52.953125 22.285156 L 50.429688 24.832031 L 47.214844 24.832031 Z M 28.179688 21.675781 C 28.773438 21.675781 29.273438 21.28125 29.4375 20.734375 L 31.792969 20.734375 L 33.796875 22.757812 L 34.910156 22.757812 C 34.722656 22.496094 34.550781 22.226562 34.394531 21.949219 L 34.128906 21.949219 L 32.125 19.925781 L 29.425781 19.925781 C 29.25 19.402344 28.757812 19.023438 28.179688 19.023438 C 27.453125 19.023438 26.863281 19.617188 26.863281 20.351562 C 26.863281 21.082031 27.453125 21.675781 28.179688 21.675781 Z M 28.179688 21.675781 " clip-rule="nonzero"/></clipPath><clipPath id="77a2b87ef9"><path d="M 71.859375 15.371094 C 71.457031 15.371094 71.117188 15.640625 71.003906 16.011719 L 60.847656 16.011719 L 57.359375 12.492188 L 53.152344 12.492188 L 50.628906 9.945312 L 47.214844 9.945312 L 47.214844 10.433594 L 50.429688 10.433594 L 52.953125 12.980469 L 57.160156 12.980469 L 60.648438 16.496094 L 70.992188 16.496094 C 71.089844 16.886719 71.441406 17.175781 71.859375 17.175781 C 72.355469 17.175781 72.757812 16.773438 72.757812 16.273438 C 72.757812 15.777344 72.355469 15.371094 71.859375 15.371094 Z M 19.960938 10.28125 C 20.542969 10.28125 21.039062 9.902344 21.21875 9.375 L 22.238281 9.375 L 24.761719 6.828125 L 29.636719 6.828125 L 31.640625 8.851562 L 36.738281 8.851562 L 38.308594 8.042969 L 31.972656 8.042969 L 29.96875 6.019531 L 24.429688 6.019531 L 21.90625 8.566406 L 21.242188 8.566406 C 21.082031 8.003906 20.570312 7.59375 19.960938 7.59375 C 19.226562 7.59375 18.628906 8.195312 18.628906 8.9375 C 18.628906 9.679688 19.226562 10.28125 19.960938 10.28125 Z M 52.3125 8.851562 L 54.316406 6.828125 L 59.195312 6.828125 L 61.71875 9.375 L 62.734375 9.375 C 62.917969 9.902344 63.410156 10.28125 63.996094 10.28125 C 64.730469 10.28125 65.324219 9.679688 65.324219 8.9375 C 65.324219 8.195312 64.730469 7.59375 63.996094 7.59375 C 63.386719 7.59375 62.871094 8.003906 62.714844 8.566406 L 62.050781 8.566406 L 59.527344 6.019531 L 53.984375 6.019531 L 51.980469 8.042969 L 44.96875 8.042969 L 47.214844 8.851562 Z M 6.890625 14.304688 C 7.296875 14.304688 7.640625 14.035156 7.75 13.660156 L 21.691406 13.660156 L 24.375 10.953125 L 30.605469 10.953125 L 30.605469 10.46875 L 24.175781 10.46875 L 21.492188 13.175781 L 7.757812 13.175781 C 7.660156 12.785156 7.308594 12.5 6.890625 12.5 C 6.398438 12.5 5.996094 12.902344 5.996094 13.402344 C 5.996094 13.902344 6.398438 14.304688 6.890625 14.304688 Z M 31.640625 26.414062 L 29.636719 28.433594 L 24.761719 28.433594 L 22.238281 25.886719 L 21.21875 25.886719 C 21.039062 25.363281 20.542969 24.984375 19.960938 24.984375 C 19.226562 24.984375 18.628906 25.585938 18.628906 26.328125 C 18.628906 27.070312 19.226562 27.671875 19.960938 27.671875 C 20.570312 27.671875 21.082031 27.257812 21.242188 26.695312 L 21.90625 26.695312 L 24.429688 29.242188 L 29.96875 29.242188 L 31.972656 27.222656 L 39.585938 27.222656 L 36.738281 26.414062 Z M 77.0625 20.957031 C 76.660156 20.957031 76.316406 21.230469 76.207031 21.601562 L 62.265625 21.601562 L 59.582031 24.3125 L 53.347656 24.3125 L 53.347656 24.796875 L 59.78125 24.796875 L 62.464844 22.089844 L 76.195312 22.089844 C 76.296875 22.476562 76.644531 22.765625 77.0625 22.765625 C 77.558594 22.765625 77.957031 22.359375 77.957031 21.863281 C 77.957031 21.363281 77.558594 20.957031 77.0625 20.957031 Z M 63.996094 24.984375 C 63.410156 24.984375 62.917969 25.363281 62.734375 25.886719 L 61.71875 25.886719 L 59.195312 28.433594 L 54.316406 28.433594 L 52.3125 26.414062 L 47.214844 26.414062 L 44.289062 27.222656 L 51.980469 27.222656 L 53.984375 29.242188 L 59.527344 29.242188 L 62.050781 26.695312 L 62.714844 26.695312 C 62.871094 27.257812 63.386719 27.671875 63.996094 27.671875 C 64.730469 27.671875 65.324219 27.070312 65.324219 26.328125 C 65.324219 25.585938 64.730469 24.984375 63.996094 24.984375 Z M 24.175781 24.796875 L 30.605469 24.796875 L 30.605469 24.3125 L 24.375 24.3125 L 21.691406 21.601562 L 7.75 21.601562 C 7.640625 21.230469 7.296875 20.957031 6.890625 20.957031 C 6.398438 20.957031 5.996094 21.363281 5.996094 21.863281 C 5.996094 22.359375 6.398438 22.765625 6.890625 22.765625 C 7.308594 22.765625 7.660156 22.476562 7.757812 22.089844 L 21.492188 22.089844 Z M 50.15625 22.757812 L 52.160156 20.734375 L 54.519531 20.734375 C 54.679688 21.28125 55.183594 21.675781 55.777344 21.675781 C 56.503906 21.675781 57.089844 21.082031 57.089844 20.351562 C 57.089844 19.617188 56.503906 19.023438 55.777344 19.023438 C 55.199219 19.023438 54.707031 19.402344 54.53125 19.925781 L 51.828125 19.925781 L 49.824219 21.949219 L 49.558594 21.949219 C 49.402344 22.226562 49.230469 22.496094 49.046875 22.757812 Z M 49.824219 13.316406 L 51.828125 15.335938 L 54.53125 15.335938 C 54.707031 15.859375 55.199219 16.238281 55.777344 16.238281 C 56.503906 16.238281 57.089844 15.644531 57.089844 14.914062 C 57.089844 14.179688 56.503906 13.585938 55.777344 13.585938 C 55.183594 13.585938 54.679688 13.984375 54.519531 14.527344 L 52.160156 14.527344 L 50.15625 12.507812 L 49.046875 12.507812 C 49.230469 12.765625 49.402344 13.035156 49.558594 13.316406 Z M 59.78125 10.46875 L 53.347656 10.46875 L 53.347656 10.953125 L 59.582031 10.953125 L 62.265625 13.660156 L 76.207031 13.660156 C 76.316406 14.035156 76.660156 14.304688 77.0625 14.304688 C 77.558594 14.304688 77.957031 13.902344 77.957031 13.402344 C 77.957031 12.902344 77.558594 12.5 77.0625 12.5 C 76.644531 12.5 76.296875 12.785156 76.195312 13.175781 L 62.464844 13.175781 Z M 28.179688 16.238281 C 28.757812 16.238281 29.25 15.859375 29.425781 15.335938 L 32.125 15.335938 L 34.128906 13.316406 L 34.394531 13.316406 C 34.550781 13.035156 34.722656 12.765625 34.910156 12.507812 L 33.796875 12.507812 L 31.792969 14.527344 L 29.4375 14.527344 C 29.273438 13.984375 28.773438 13.585938 28.179688 13.585938 C 27.453125 13.585938 26.863281 14.179688 26.863281 14.914062 C 26.863281 15.644531 27.453125 16.238281 28.179688 16.238281 Z M 36.738281 9.945312 L 33.328125 9.945312 L 30.800781 12.492188 L 26.59375 12.492188 L 23.109375 16.011719 L 12.949219 16.011719 C 12.839844 15.640625 12.496094 15.371094 12.09375 15.371094 C 11.601562 15.371094 11.199219 15.777344 11.199219 16.273438 C 11.199219 16.773438 11.601562 17.175781 12.09375 17.175781 C 12.511719 17.175781 12.863281 16.886719 12.960938 16.496094 L 23.308594 16.496094 L 26.792969 12.980469 L 31 12.980469 L 33.527344 10.433594 L 36.738281 10.433594 Z M 23.308594 18.769531 L 12.960938 18.769531 C 12.863281 18.375 12.511719 18.085938 12.09375 18.085938 C 11.601562 18.085938 11.199219 18.488281 11.199219 18.988281 C 11.199219 19.488281 11.601562 19.890625 12.09375 19.890625 C 12.496094 19.890625 12.839844 19.621094 12.949219 19.253906 L 23.109375 19.253906 L 26.59375 22.769531 L 30.800781 22.769531 L 33.328125 25.316406 L 36.738281 25.316406 L 36.738281 24.832031 L 33.527344 24.832031 L 31 22.285156 L 26.792969 22.285156 Z M 47.214844 25.316406 L 50.628906 25.316406 L 53.152344 22.769531 L 57.359375 22.769531 L 60.847656 19.253906 L 71.003906 19.253906 C 71.117188 19.621094 71.457031 19.890625 71.859375 19.890625 C 72.355469 19.890625 72.757812 19.488281 72.757812 18.988281 C 72.757812 18.488281 72.355469 18.085938 71.859375 18.085938 C 71.441406 18.085938 71.089844 18.375 70.992188 18.769531 L 60.648438 18.769531 L 57.160156 22.285156 L 52.953125 22.285156 L 50.429688 24.832031 L 47.214844 24.832031 Z M 28.179688 21.675781 C 28.773438 21.675781 29.273438 21.28125 29.4375 20.734375 L 31.792969 20.734375 L 33.796875 22.757812 L 34.910156 22.757812 C 34.722656 22.496094 34.550781 22.226562 34.394531 21.949219 L 34.128906 21.949219 L 32.125 19.925781 L 29.425781 19.925781 C 29.25 19.402344 28.757812 19.023438 28.179688 19.023438 C 27.453125 19.023438 26.863281 19.617188 26.863281 20.351562 C 26.863281 21.082031 27.453125 21.675781 28.179688 21.675781 " clip-rule="nonzero"/></clipPath><linearGradient x1="0.00000000347222" gradientTransform="matrix(71.961597, 0, 0, 72.598357, 5.996799, 17.631607)" y1="0" x2="0.999998" gradientUnits="userSpaceOnUse" y2="0" id="1c55ea85be"><stop stop-opacity="1" stop-color="rgb(31.759644%, 67.83905%, 89.7995%)" offset="0"/><stop stop-opacity="1" stop-color="rgb(31.573486%, 67.652893%, 89.613342%)" offset="0.0078125"/><stop stop-opacity="1" stop-color="rgb(31.201172%, 67.282104%, 89.41803%)" offset="0.015625"/><stop stop-opacity="1" stop-color="rgb(30.99823%, 66.860962%, 89.213562%)" offset="0.0195312"/><stop stop-opacity="1" stop-color="rgb(30.979919%, 66.625977%, 89.019775%)" offset="0.0234375"/><stop stop-opacity="1" stop-color="rgb(30.979919%, 66.252136%, 88.824463%)" offset="0.0273438"/><stop stop-opacity="1" stop-color="rgb(30.979919%, 65.879822%, 88.62915%)" offset="0.03125"/><stop stop-opacity="1" stop-color="rgb(30.784607%, 65.684509%, 88.433838%)" offset="0.0390625"/><stop stop-opacity="1" stop-color="rgb(30.589294%, 65.299988%, 88.044739%)" offset="0.046875"/><stop stop-opacity="1" stop-color="rgb(30.589294%, 64.924622%, 87.844849%)" offset="0.0546875"/><stop stop-opacity="1" stop-color="rgb(30.589294%, 64.549255%, 87.643433%)" offset="0.0625"/><stop stop-opacity="1" stop-color="rgb(30.378723%, 64.123535%, 87.254333%)" offset="0.0664062"/><stop stop-opacity="1" stop-color="rgb(30.168152%, 63.88855%, 87.059021%)" offset="0.0703125"/><stop stop-opacity="1" stop-color="rgb(29.983521%, 63.702393%, 87.052917%)" offset="0.078125"/><stop stop-opacity="1" stop-color="rgb(29.798889%, 63.136292%, 86.857605%)" offset="0.0820312"/><stop stop-opacity="1" stop-color="rgb(29.798889%, 62.754822%, 86.669922%)" offset="0.0859375"/><stop stop-opacity="1" stop-color="rgb(29.798889%, 62.564087%, 86.482239%)" offset="0.09375"/><stop stop-opacity="1" stop-color="rgb(29.603577%, 62.188721%, 86.280823%)" offset="0.101562"/><stop stop-opacity="1" stop-color="rgb(29.40979%, 61.785889%, 86.073303%)" offset="0.105469"/><stop stop-opacity="1" stop-color="rgb(29.40979%, 61.569214%, 85.879517%)" offset="0.109375"/><stop stop-opacity="1" stop-color="rgb(29.400635%, 61.373901%, 85.684204%)" offset="0.117188"/><stop stop-opacity="1" stop-color="rgb(29.205322%, 60.978699%, 85.293579%)" offset="0.121094"/><stop stop-opacity="1" stop-color="rgb(29.019165%, 60.778809%, 85.099792%)" offset="0.125"/><stop stop-opacity="1" stop-color="rgb(29.019165%, 60.592651%, 85.099792%)" offset="0.132812"/><stop stop-opacity="1" stop-color="rgb(29.019165%, 60.203552%, 84.90448%)" offset="0.136719"/><stop stop-opacity="1" stop-color="rgb(29.019165%, 59.999084%, 84.709167%)" offset="0.140625"/><stop stop-opacity="1" stop-color="rgb(28.823853%, 59.78241%, 84.509277%)" offset="0.144531"/><stop stop-opacity="1" stop-color="rgb(28.62854%, 59.567261%, 84.309387%)" offset="0.148438"/><stop stop-opacity="1" stop-color="rgb(28.433228%, 59.19342%, 84.29718%)" offset="0.152344"/><stop stop-opacity="1" stop-color="rgb(28.239441%, 58.81958%, 84.284973%)" offset="0.15625"/><stop stop-opacity="1" stop-color="rgb(28.239441%, 58.624268%, 84.101868%)" offset="0.164062"/><stop stop-opacity="1" stop-color="rgb(28.239441%, 58.239746%, 83.729553%)" offset="0.171875"/><stop stop-opacity="1" stop-color="rgb(28.239441%, 57.865906%, 83.535767%)" offset="0.179688"/><stop stop-opacity="1" stop-color="rgb(28.039551%, 57.489014%, 83.334351%)" offset="0.183594"/><stop stop-opacity="1" stop-color="rgb(27.839661%, 57.299805%, 83.139038%)" offset="0.1875"/><stop stop-opacity="1" stop-color="rgb(27.839661%, 57.078552%, 82.943726%)" offset="0.191406"/><stop stop-opacity="1" stop-color="rgb(27.839661%, 56.858826%, 82.749939%)" offset="0.195312"/><stop stop-opacity="1" stop-color="rgb(27.839661%, 56.663513%, 82.74231%)" offset="0.203125"/><stop stop-opacity="1" stop-color="rgb(27.6474%, 56.277466%, 82.542419%)" offset="0.210937"/><stop stop-opacity="1" stop-color="rgb(27.452087%, 55.886841%, 82.15332%)" offset="0.214844"/><stop stop-opacity="1" stop-color="rgb(27.449036%, 55.688477%, 81.959534%)" offset="0.21875"/><stop stop-opacity="1" stop-color="rgb(27.449036%, 55.488586%, 81.785583%)" offset="0.222656"/><stop stop-opacity="1" stop-color="rgb(27.449036%, 55.288696%, 81.611633%)" offset="0.226562"/><stop stop-opacity="1" stop-color="rgb(27.253723%, 55.075073%, 81.57196%)" offset="0.230469"/><stop stop-opacity="1" stop-color="rgb(27.059937%, 54.862976%, 81.532288%)" offset="0.234375"/><stop stop-opacity="1" stop-color="rgb(27.050781%, 54.676819%, 81.355286%)" offset="0.242188"/><stop stop-opacity="1" stop-color="rgb(26.855469%, 54.304504%, 81.17981%)" offset="0.25"/><stop stop-opacity="1" stop-color="rgb(26.669312%, 53.924561%, 80.978394%)" offset="0.253906"/><stop stop-opacity="1" stop-color="rgb(26.669312%, 53.729248%, 80.778503%)" offset="0.257812"/><stop stop-opacity="1" stop-color="rgb(26.669312%, 53.529358%, 80.601501%)" offset="0.261719"/><stop stop-opacity="1" stop-color="rgb(26.669312%, 53.329468%, 80.426025%)" offset="0.265625"/><stop stop-opacity="1" stop-color="rgb(26.646423%, 53.112793%, 80.386353%)" offset="0.269531"/><stop stop-opacity="1" stop-color="rgb(26.625061%, 52.896118%, 80.34668%)" offset="0.273437"/><stop stop-opacity="1" stop-color="rgb(26.446533%, 52.526855%, 80.160522%)" offset="0.277344"/><stop stop-opacity="1" stop-color="rgb(26.269531%, 52.159119%, 79.974365%)" offset="0.28125"/><stop stop-opacity="1" stop-color="rgb(26.269531%, 51.959229%, 79.788208%)" offset="0.285156"/><stop stop-opacity="1" stop-color="rgb(26.269531%, 51.759338%, 79.603577%)" offset="0.289062"/><stop stop-opacity="1" stop-color="rgb(26.080322%, 51.570129%, 79.411316%)" offset="0.296875"/><stop stop-opacity="1" stop-color="rgb(25.88501%, 51.194763%, 79.219055%)" offset="0.304688"/><stop stop-opacity="1" stop-color="rgb(25.708008%, 50.823975%, 79.019165%)" offset="0.308594"/><stop stop-opacity="1" stop-color="rgb(25.538635%, 50.637817%, 78.819275%)" offset="0.3125"/><stop stop-opacity="1" stop-color="rgb(25.514221%, 50.418091%, 78.623962%)" offset="0.316406"/><stop stop-opacity="1" stop-color="rgb(25.489807%, 50.19989%, 78.42865%)" offset="0.320312"/><stop stop-opacity="1" stop-color="rgb(25.489807%, 50.192261%, 78.42865%)" offset="0.328125"/><stop stop-opacity="1" stop-color="rgb(25.489807%, 49.992371%, 78.236389%)" offset="0.335938"/><stop stop-opacity="1" stop-color="rgb(25.306702%, 49.603271%, 78.042603%)" offset="0.34375"/><stop stop-opacity="1" stop-color="rgb(25.111389%, 49.214172%, 77.844238%)" offset="0.351563"/><stop stop-opacity="1" stop-color="rgb(25.099182%, 48.805237%, 77.449036%)" offset="0.355469"/><stop stop-opacity="1" stop-color="rgb(25.099182%, 48.59314%, 77.249146%)" offset="0.359375"/><stop stop-opacity="1" stop-color="rgb(25.090027%, 48.216248%, 77.053833%)" offset="0.363281"/><stop stop-opacity="1" stop-color="rgb(25.080872%, 47.839355%, 76.858521%)" offset="0.367187"/><stop stop-opacity="1" stop-color="rgb(24.894714%, 47.644043%, 76.858521%)" offset="0.375"/><stop stop-opacity="1" stop-color="rgb(24.517822%, 47.44873%, 76.663208%)" offset="0.382812"/><stop stop-opacity="1" stop-color="rgb(24.317932%, 47.253418%, 76.292419%)" offset="0.390625"/><stop stop-opacity="1" stop-color="rgb(24.308777%, 46.842957%, 76.097107%)" offset="0.394531"/><stop stop-opacity="1" stop-color="rgb(24.308777%, 46.626282%, 76.078796%)" offset="0.398437"/><stop stop-opacity="1" stop-color="rgb(24.308777%, 46.435547%, 75.883484%)" offset="0.40625"/><stop stop-opacity="1" stop-color="rgb(24.305725%, 46.058655%, 75.686646%)" offset="0.414062"/><stop stop-opacity="1" stop-color="rgb(24.110413%, 45.680237%, 75.486755%)" offset="0.417969"/><stop stop-opacity="1" stop-color="rgb(23.919678%, 45.489502%, 75.289917%)" offset="0.421875"/><stop stop-opacity="1" stop-color="rgb(23.919678%, 45.294189%, 75.109863%)" offset="0.429687"/><stop stop-opacity="1" stop-color="rgb(23.919678%, 44.903564%, 74.743652%)" offset="0.4375"/><stop stop-opacity="1" stop-color="rgb(23.904419%, 44.494629%, 74.517822%)" offset="0.441406"/><stop stop-opacity="1" stop-color="rgb(23.88916%, 44.27948%, 74.478149%)" offset="0.445312"/><stop stop-opacity="1" stop-color="rgb(23.709106%, 44.093323%, 74.298096%)" offset="0.453125"/><stop stop-opacity="1" stop-color="rgb(23.336792%, 43.717957%, 73.927307%)" offset="0.460937"/><stop stop-opacity="1" stop-color="rgb(23.143005%, 43.345642%, 73.731995%)" offset="0.46875"/><stop stop-opacity="1" stop-color="rgb(23.139954%, 42.977905%, 73.550415%)" offset="0.476562"/><stop stop-opacity="1" stop-color="rgb(23.139954%, 42.570496%, 73.332214%)" offset="0.480469"/><stop stop-opacity="1" stop-color="rgb(23.139954%, 42.349243%, 73.292542%)" offset="0.484375"/><stop stop-opacity="1" stop-color="rgb(23.139954%, 42.153931%, 73.11554%)" offset="0.492188"/><stop stop-opacity="1" stop-color="rgb(23.139954%, 41.763306%, 72.743225%)" offset="0.5"/><stop stop-opacity="1" stop-color="rgb(22.944641%, 41.383362%, 72.549438%)" offset="0.507812"/><stop stop-opacity="1" stop-color="rgb(22.749329%, 41.00647%, 72.354126%)" offset="0.515625"/><stop stop-opacity="1" stop-color="rgb(22.549438%, 40.776062%, 71.958923%)" offset="0.519531"/><stop stop-opacity="1" stop-color="rgb(22.349548%, 40.736389%, 71.759033%)" offset="0.523438"/><stop stop-opacity="1" stop-color="rgb(22.349548%, 40.550232%, 71.746826%)" offset="0.53125"/><stop stop-opacity="1" stop-color="rgb(22.349548%, 40.179443%, 71.551514%)" offset="0.539062"/><stop stop-opacity="1" stop-color="rgb(22.349548%, 39.801025%, 71.180725%)" offset="0.546875"/><stop stop-opacity="1" stop-color="rgb(22.154236%, 39.413452%, 70.985413%)" offset="0.554688"/><stop stop-opacity="1" stop-color="rgb(21.958923%, 39.019775%, 70.783997%)" offset="0.558594"/><stop stop-opacity="1" stop-color="rgb(21.958923%, 38.819885%, 70.588684%)" offset="0.5625"/><stop stop-opacity="1" stop-color="rgb(21.958923%, 38.624573%, 70.573425%)" offset="0.570312"/><stop stop-opacity="1" stop-color="rgb(21.958923%, 38.233948%, 70.378113%)" offset="0.578125"/><stop stop-opacity="1" stop-color="rgb(21.958923%, 37.846375%, 70.002747%)" offset="0.582031"/><stop stop-opacity="1" stop-color="rgb(21.958923%, 37.65564%, 69.805908%)" offset="0.585938"/><stop stop-opacity="1" stop-color="rgb(21.763611%, 37.652588%, 69.802856%)" offset="0.59375"/><stop stop-opacity="1" stop-color="rgb(21.395874%, 37.449646%, 69.604492%)" offset="0.597656"/><stop stop-opacity="1" stop-color="rgb(21.221924%, 37.249756%, 69.40918%)" offset="0.601562"/><stop stop-opacity="1" stop-color="rgb(21.200562%, 37.036133%, 69.213867%)" offset="0.605469"/><stop stop-opacity="1" stop-color="rgb(21.179199%, 36.82251%, 69.018555%)" offset="0.609375"/><stop stop-opacity="1" stop-color="rgb(21.179199%, 36.636353%, 68.823242%)" offset="0.617187"/><stop stop-opacity="1" stop-color="rgb(21.179199%, 36.265564%, 68.629456%)" offset="0.625"/><stop stop-opacity="1" stop-color="rgb(21.179199%, 35.89325%, 68.443298%)" offset="0.632812"/><stop stop-opacity="1" stop-color="rgb(21.179199%, 35.516357%, 68.247986%)" offset="0.640625"/><stop stop-opacity="1" stop-color="rgb(20.979309%, 35.28595%, 68.03894%)" offset="0.644531"/><stop stop-opacity="1" stop-color="rgb(20.779419%, 35.246277%, 67.83905%)" offset="0.648437"/><stop stop-opacity="1" stop-color="rgb(20.779419%, 35.06012%, 67.826843%)" offset="0.65625"/><stop stop-opacity="1" stop-color="rgb(20.779419%, 34.692383%, 67.631531%)" offset="0.664062"/><stop stop-opacity="1" stop-color="rgb(20.779419%, 34.320068%, 67.449951%)" offset="0.671875"/><stop stop-opacity="1" stop-color="rgb(20.584106%, 33.944702%, 67.254639%)" offset="0.679688"/><stop stop-opacity="1" stop-color="rgb(20.388794%, 33.744812%, 66.864014%)" offset="0.6875"/><stop stop-opacity="1" stop-color="rgb(20.388794%, 33.514404%, 66.468811%)" offset="0.691406"/><stop stop-opacity="1" stop-color="rgb(20.388794%, 33.299255%, 66.268921%)" offset="0.695312"/><stop stop-opacity="1" stop-color="rgb(20.38269%, 33.113098%, 66.262817%)" offset="0.703125"/><stop stop-opacity="1" stop-color="rgb(20.187378%, 32.737732%, 66.067505%)" offset="0.710938"/><stop stop-opacity="1" stop-color="rgb(19.999695%, 32.365417%, 65.879822%)" offset="0.71875"/><stop stop-opacity="1" stop-color="rgb(19.999695%, 31.993103%, 65.684509%)" offset="0.726562"/><stop stop-opacity="1" stop-color="rgb(19.981384%, 31.762695%, 65.293884%)" offset="0.734375"/><stop stop-opacity="1" stop-color="rgb(19.786072%, 31.536865%, 65.089417%)" offset="0.742188"/><stop stop-opacity="1" stop-color="rgb(19.60907%, 31.164551%, 64.89563%)" offset="0.75"/><stop stop-opacity="1" stop-color="rgb(19.60907%, 30.793762%, 64.518738%)" offset="0.757812"/><stop stop-opacity="1" stop-color="rgb(19.60907%, 30.421448%, 64.318848%)" offset="0.765625"/><stop stop-opacity="1" stop-color="rgb(19.587708%, 30.01709%, 64.11438%)" offset="0.769531"/><stop stop-opacity="1" stop-color="rgb(19.566345%, 29.798889%, 63.919067%)" offset="0.773437"/><stop stop-opacity="1" stop-color="rgb(19.392395%, 29.786682%, 63.90686%)" offset="0.78125"/><stop stop-opacity="1" stop-color="rgb(19.219971%, 29.59137%, 63.711548%)" offset="0.789062"/><stop stop-opacity="1" stop-color="rgb(19.219971%, 29.220581%, 63.529968%)" offset="0.796875"/><stop stop-opacity="1" stop-color="rgb(19.219971%, 29.025269%, 63.334656%)" offset="0.804687"/><stop stop-opacity="1" stop-color="rgb(19.219971%, 28.823853%, 62.968445%)" offset="0.8125"/><stop stop-opacity="1" stop-color="rgb(19.018555%, 28.417969%, 62.757874%)" offset="0.816406"/><stop stop-opacity="1" stop-color="rgb(18.818665%, 28.207397%, 62.718201%)" offset="0.820312"/><stop stop-opacity="1" stop-color="rgb(18.818665%, 28.022766%, 62.527466%)" offset="0.828125"/><stop stop-opacity="1" stop-color="rgb(18.818665%, 27.644348%, 62.147522%)" offset="0.84375"/><stop stop-opacity="1" stop-color="rgb(18.644714%, 27.253723%, 61.764526%)" offset="0.851562"/><stop stop-opacity="1" stop-color="rgb(18.450928%, 26.864624%, 61.550903%)" offset="0.859375"/><stop stop-opacity="1" stop-color="rgb(18.429565%, 26.660156%, 61.355591%)" offset="0.867188"/><stop stop-opacity="1" stop-color="rgb(18.429565%, 26.460266%, 61.178589%)" offset="0.875"/><stop stop-opacity="1" stop-color="rgb(18.429565%, 26.074219%, 60.978699%)" offset="0.878906"/><stop stop-opacity="1" stop-color="rgb(18.429565%, 25.878906%, 60.778809%)" offset="0.882812"/><stop stop-opacity="1" stop-color="rgb(18.429565%, 25.683594%, 60.601807%)" offset="0.890625"/><stop stop-opacity="1" stop-color="rgb(18.234253%, 25.294495%, 60.386658%)" offset="0.898437"/><stop stop-opacity="1" stop-color="rgb(18.03894%, 25.086975%, 60.173035%)" offset="0.90625"/><stop stop-opacity="1" stop-color="rgb(18.03894%, 24.891663%, 59.803772%)" offset="0.914062"/><stop stop-opacity="1" stop-color="rgb(18.03894%, 24.514771%, 59.609985%)" offset="0.921875"/><stop stop-opacity="1" stop-color="rgb(18.03894%, 24.31488%, 59.429932%)" offset="0.929688"/><stop stop-opacity="1" stop-color="rgb(17.868042%, 24.113464%, 59.234619%)" offset="0.9375"/><stop stop-opacity="1" stop-color="rgb(17.674255%, 23.724365%, 59.01947%)" offset="0.941406"/><stop stop-opacity="1" stop-color="rgb(17.649841%, 23.529053%, 58.81958%)" offset="0.945313"/><stop stop-opacity="1" stop-color="rgb(17.649841%, 23.33374%, 58.624268%)" offset="0.953125"/><stop stop-opacity="1" stop-color="rgb(17.462158%, 22.944641%, 58.24585%)" offset="0.96875"/><stop stop-opacity="1" stop-color="rgb(17.260742%, 22.570801%, 58.052063%)" offset="0.976562"/><stop stop-opacity="1" stop-color="rgb(17.248535%, 22.370911%, 57.844543%)" offset="0.984375"/><stop stop-opacity="1" stop-color="rgb(17.248535%, 22.154236%, 57.640076%)" offset="0.992188"/><stop stop-opacity="1" stop-color="rgb(17.248535%, 21.958923%, 57.440186%)" offset="1"/></linearGradient><clipPath id="718578c5b1"><path d="M 31.597656 7.160156 L 52.359375 7.160156 L 52.359375 28.105469 L 31.597656 28.105469 Z M 31.597656 7.160156 " clip-rule="nonzero"/></clipPath><clipPath id="9bfde7d9c1"><path d="M 41.976562 25.367188 C 37.742188 25.367188 34.308594 21.902344 34.308594 17.632812 C 34.308594 13.359375 37.742188 9.894531 41.976562 9.894531 C 46.210938 9.894531 49.644531 13.359375 49.644531 17.632812 C 49.644531 21.902344 46.210938 25.367188 41.976562 25.367188 Z M 41.976562 7.160156 C 36.246094 7.160156 31.597656 11.847656 31.597656 17.632812 C 31.597656 23.414062 36.246094 28.105469 41.976562 28.105469 C 47.710938 28.105469 52.359375 23.414062 52.359375 17.632812 C 52.359375 11.847656 47.710938 7.160156 41.976562 7.160156 Z M 41.976562 7.160156 " clip-rule="nonzero"/></clipPath><clipPath id="fdd7557384"><path d="M 41.976562 25.367188 C 37.742188 25.367188 34.308594 21.902344 34.308594 17.632812 C 34.308594 13.359375 37.742188 9.894531 41.976562 9.894531 C 46.210938 9.894531 49.644531 13.359375 49.644531 17.632812 C 49.644531 21.902344 46.210938 25.367188 41.976562 25.367188 Z M 41.976562 7.160156 C 36.246094 7.160156 31.597656 11.847656 31.597656 17.632812 C 31.597656 23.414062 36.246094 28.105469 41.976562 28.105469 C 47.710938 28.105469 52.359375 23.414062 52.359375 17.632812 C 52.359375 11.847656 47.710938 7.160156 41.976562 7.160156 " clip-rule="nonzero"/></clipPath><linearGradient x1="0.00000149063" gradientTransform="matrix(20.760541, 0, 0, 20.944244, 31.597327, 17.631607)" y1="0" x2="0.999991" gradientUnits="userSpaceOnUse" y2="0" id="c777bc0892"><stop stop-opacity="1" stop-color="rgb(31.759644%, 67.83905%, 89.7995%)" offset="0"/><stop stop-opacity="1" stop-color="rgb(31.573486%, 67.652893%, 89.613342%)" offset="0.0078125"/><stop stop-opacity="1" stop-color="rgb(31.201172%, 67.280579%, 89.41803%)" offset="0.015625"/><stop stop-opacity="1" stop-color="rgb(30.996704%, 66.860962%, 89.213562%)" offset="0.0195312"/><stop stop-opacity="1" stop-color="rgb(30.979919%, 66.625977%, 89.019775%)" offset="0.0234375"/><stop stop-opacity="1" stop-color="rgb(30.979919%, 66.252136%, 88.824463%)" offset="0.0273438"/><stop stop-opacity="1" stop-color="rgb(30.979919%, 65.879822%, 88.62915%)" offset="0.03125"/><stop stop-opacity="1" stop-color="rgb(30.784607%, 65.684509%, 88.433838%)" offset="0.0390625"/><stop stop-opacity="1" stop-color="rgb(30.589294%, 65.299988%, 88.044739%)" offset="0.046875"/><stop stop-opacity="1" stop-color="rgb(30.589294%, 64.924622%, 87.844849%)" offset="0.0546875"/><stop stop-opacity="1" stop-color="rgb(30.589294%, 64.549255%, 87.643433%)" offset="0.0625"/><stop stop-opacity="1" stop-color="rgb(30.378723%, 64.123535%, 87.254333%)" offset="0.0664062"/><stop stop-opacity="1" stop-color="rgb(30.168152%, 63.88855%, 87.059021%)" offset="0.0703125"/><stop stop-opacity="1" stop-color="rgb(29.983521%, 63.702393%, 87.052917%)" offset="0.078125"/><stop stop-opacity="1" stop-color="rgb(29.798889%, 63.134766%, 86.857605%)" offset="0.0820312"/><stop stop-opacity="1" stop-color="rgb(29.798889%, 62.754822%, 86.669922%)" offset="0.0859375"/><stop stop-opacity="1" stop-color="rgb(29.798889%, 62.564087%, 86.482239%)" offset="0.09375"/><stop stop-opacity="1" stop-color="rgb(29.603577%, 62.188721%, 86.280823%)" offset="0.101562"/><stop stop-opacity="1" stop-color="rgb(29.40979%, 61.785889%, 86.073303%)" offset="0.105469"/><stop stop-opacity="1" stop-color="rgb(29.40979%, 61.569214%, 85.879517%)" offset="0.109375"/><stop stop-opacity="1" stop-color="rgb(29.400635%, 61.373901%, 85.684204%)" offset="0.117188"/><stop stop-opacity="1" stop-color="rgb(29.205322%, 60.978699%, 85.293579%)" offset="0.121094"/><stop stop-opacity="1" stop-color="rgb(29.019165%, 60.778809%, 85.099792%)" offset="0.125"/><stop stop-opacity="1" stop-color="rgb(29.019165%, 60.592651%, 85.099792%)" offset="0.132812"/><stop stop-opacity="1" stop-color="rgb(29.019165%, 60.203552%, 84.90448%)" offset="0.136719"/><stop stop-opacity="1" stop-color="rgb(29.019165%, 59.999084%, 84.709167%)" offset="0.140625"/><stop stop-opacity="1" stop-color="rgb(28.823853%, 59.78241%, 84.509277%)" offset="0.144531"/><stop stop-opacity="1" stop-color="rgb(28.62854%, 59.567261%, 84.309387%)" offset="0.148437"/><stop stop-opacity="1" stop-color="rgb(28.433228%, 59.19342%, 84.29718%)" offset="0.152344"/><stop stop-opacity="1" stop-color="rgb(28.239441%, 58.81958%, 84.284973%)" offset="0.15625"/><stop stop-opacity="1" stop-color="rgb(28.239441%, 58.624268%, 84.101868%)" offset="0.164062"/><stop stop-opacity="1" stop-color="rgb(28.239441%, 58.239746%, 83.729553%)" offset="0.171875"/><stop stop-opacity="1" stop-color="rgb(28.239441%, 57.865906%, 83.535767%)" offset="0.179687"/><stop stop-opacity="1" stop-color="rgb(28.039551%, 57.489014%, 83.334351%)" offset="0.183594"/><stop stop-opacity="1" stop-color="rgb(27.839661%, 57.299805%, 83.139038%)" offset="0.1875"/><stop stop-opacity="1" stop-color="rgb(27.839661%, 57.078552%, 82.943726%)" offset="0.191406"/><stop stop-opacity="1" stop-color="rgb(27.839661%, 56.858826%, 82.749939%)" offset="0.195312"/><stop stop-opacity="1" stop-color="rgb(27.839661%, 56.663513%, 82.74231%)" offset="0.203125"/><stop stop-opacity="1" stop-color="rgb(27.6474%, 56.277466%, 82.542419%)" offset="0.210938"/><stop stop-opacity="1" stop-color="rgb(27.452087%, 55.886841%, 82.15332%)" offset="0.214844"/><stop stop-opacity="1" stop-color="rgb(27.449036%, 55.688477%, 81.959534%)" offset="0.21875"/><stop stop-opacity="1" stop-color="rgb(27.449036%, 55.488586%, 81.785583%)" offset="0.222656"/><stop stop-opacity="1" stop-color="rgb(27.449036%, 55.288696%, 81.611633%)" offset="0.226562"/><stop stop-opacity="1" stop-color="rgb(27.253723%, 55.075073%, 81.57196%)" offset="0.230469"/><stop stop-opacity="1" stop-color="rgb(27.059937%, 54.862976%, 81.532288%)" offset="0.234375"/><stop stop-opacity="1" stop-color="rgb(27.050781%, 54.676819%, 81.355286%)" offset="0.242188"/><stop stop-opacity="1" stop-color="rgb(26.855469%, 54.304504%, 81.17981%)" offset="0.25"/><stop stop-opacity="1" stop-color="rgb(26.669312%, 53.924561%, 80.978394%)" offset="0.253906"/><stop stop-opacity="1" stop-color="rgb(26.669312%, 53.729248%, 80.778503%)" offset="0.257812"/><stop stop-opacity="1" stop-color="rgb(26.669312%, 53.529358%, 80.601501%)" offset="0.261719"/><stop stop-opacity="1" stop-color="rgb(26.669312%, 53.329468%, 80.426025%)" offset="0.265625"/><stop stop-opacity="1" stop-color="rgb(26.646423%, 53.112793%, 80.386353%)" offset="0.269531"/><stop stop-opacity="1" stop-color="rgb(26.625061%, 52.896118%, 80.34668%)" offset="0.273438"/><stop stop-opacity="1" stop-color="rgb(26.446533%, 52.526855%, 80.160522%)" offset="0.277344"/><stop stop-opacity="1" stop-color="rgb(26.269531%, 52.159119%, 79.974365%)" offset="0.28125"/><stop stop-opacity="1" stop-color="rgb(26.269531%, 51.959229%, 79.788208%)" offset="0.285156"/><stop stop-opacity="1" stop-color="rgb(26.269531%, 51.759338%, 79.603577%)" offset="0.289062"/><stop stop-opacity="1" stop-color="rgb(26.080322%, 51.570129%, 79.411316%)" offset="0.296875"/><stop stop-opacity="1" stop-color="rgb(25.88501%, 51.194763%, 79.219055%)" offset="0.304687"/><stop stop-opacity="1" stop-color="rgb(25.708008%, 50.823975%, 79.019165%)" offset="0.308594"/><stop stop-opacity="1" stop-color="rgb(25.538635%, 50.637817%, 78.819275%)" offset="0.3125"/><stop stop-opacity="1" stop-color="rgb(25.514221%, 50.418091%, 78.623962%)" offset="0.316406"/><stop stop-opacity="1" stop-color="rgb(25.489807%, 50.19989%, 78.42865%)" offset="0.320312"/><stop stop-opacity="1" stop-color="rgb(25.489807%, 50.193787%, 78.42865%)" offset="0.328125"/><stop stop-opacity="1" stop-color="rgb(25.489807%, 49.992371%, 78.236389%)" offset="0.335937"/><stop stop-opacity="1" stop-color="rgb(25.306702%, 49.603271%, 78.042603%)" offset="0.34375"/><stop stop-opacity="1" stop-color="rgb(25.111389%, 49.214172%, 77.844238%)" offset="0.351562"/><stop stop-opacity="1" stop-color="rgb(25.099182%, 48.805237%, 77.449036%)" offset="0.355469"/><stop stop-opacity="1" stop-color="rgb(25.099182%, 48.59314%, 77.249146%)" offset="0.359375"/><stop stop-opacity="1" stop-color="rgb(25.090027%, 48.216248%, 77.053833%)" offset="0.363281"/><stop stop-opacity="1" stop-color="rgb(25.080872%, 47.839355%, 76.858521%)" offset="0.367187"/><stop stop-opacity="1" stop-color="rgb(24.894714%, 47.644043%, 76.858521%)" offset="0.375"/><stop stop-opacity="1" stop-color="rgb(24.517822%, 47.44873%, 76.663208%)" offset="0.382812"/><stop stop-opacity="1" stop-color="rgb(24.317932%, 47.253418%, 76.292419%)" offset="0.390625"/><stop stop-opacity="1" stop-color="rgb(24.308777%, 46.842957%, 76.097107%)" offset="0.394531"/><stop stop-opacity="1" stop-color="rgb(24.308777%, 46.626282%, 76.078796%)" offset="0.398437"/><stop stop-opacity="1" stop-color="rgb(24.308777%, 46.435547%, 75.883484%)" offset="0.40625"/><stop stop-opacity="1" stop-color="rgb(24.305725%, 46.058655%, 75.686646%)" offset="0.414062"/><stop stop-opacity="1" stop-color="rgb(24.110413%, 45.681763%, 75.486755%)" offset="0.417969"/><stop stop-opacity="1" stop-color="rgb(23.919678%, 45.489502%, 75.289917%)" offset="0.421875"/><stop stop-opacity="1" stop-color="rgb(23.919678%, 45.294189%, 75.109863%)" offset="0.429687"/><stop stop-opacity="1" stop-color="rgb(23.919678%, 44.903564%, 74.743652%)" offset="0.4375"/><stop stop-opacity="1" stop-color="rgb(23.904419%, 44.494629%, 74.519348%)" offset="0.441406"/><stop stop-opacity="1" stop-color="rgb(23.88916%, 44.27948%, 74.479675%)" offset="0.445312"/><stop stop-opacity="1" stop-color="rgb(23.709106%, 44.093323%, 74.299622%)" offset="0.453125"/><stop stop-opacity="1" stop-color="rgb(23.336792%, 43.717957%, 73.927307%)" offset="0.460937"/><stop stop-opacity="1" stop-color="rgb(23.143005%, 43.345642%, 73.731995%)" offset="0.46875"/><stop stop-opacity="1" stop-color="rgb(23.139954%, 42.977905%, 73.550415%)" offset="0.476562"/><stop stop-opacity="1" stop-color="rgb(23.139954%, 42.570496%, 73.332214%)" offset="0.480469"/><stop stop-opacity="1" stop-color="rgb(23.139954%, 42.349243%, 73.292542%)" offset="0.484375"/><stop stop-opacity="1" stop-color="rgb(23.139954%, 42.153931%, 73.11554%)" offset="0.492187"/><stop stop-opacity="1" stop-color="rgb(23.139954%, 41.763306%, 72.743225%)" offset="0.5"/><stop stop-opacity="1" stop-color="rgb(22.944641%, 41.383362%, 72.549438%)" offset="0.507812"/><stop stop-opacity="1" stop-color="rgb(22.749329%, 41.00647%, 72.354126%)" offset="0.515625"/><stop stop-opacity="1" stop-color="rgb(22.549438%, 40.776062%, 71.958923%)" offset="0.519531"/><stop stop-opacity="1" stop-color="rgb(22.349548%, 40.736389%, 71.759033%)" offset="0.523438"/><stop stop-opacity="1" stop-color="rgb(22.349548%, 40.550232%, 71.746826%)" offset="0.53125"/><stop stop-opacity="1" stop-color="rgb(22.349548%, 40.179443%, 71.551514%)" offset="0.539062"/><stop stop-opacity="1" stop-color="rgb(22.349548%, 39.801025%, 71.180725%)" offset="0.546875"/><stop stop-opacity="1" stop-color="rgb(22.154236%, 39.413452%, 70.985413%)" offset="0.554688"/><stop stop-opacity="1" stop-color="rgb(21.958923%, 39.019775%, 70.783997%)" offset="0.558594"/><stop stop-opacity="1" stop-color="rgb(21.958923%, 38.819885%, 70.588684%)" offset="0.5625"/><stop stop-opacity="1" stop-color="rgb(21.958923%, 38.624573%, 70.573425%)" offset="0.570312"/><stop stop-opacity="1" stop-color="rgb(21.958923%, 38.233948%, 70.379639%)" offset="0.578125"/><stop stop-opacity="1" stop-color="rgb(21.958923%, 37.846375%, 70.002747%)" offset="0.582031"/><stop stop-opacity="1" stop-color="rgb(21.958923%, 37.65564%, 69.805908%)" offset="0.585937"/><stop stop-opacity="1" stop-color="rgb(21.763611%, 37.652588%, 69.802856%)" offset="0.59375"/><stop stop-opacity="1" stop-color="rgb(21.395874%, 37.449646%, 69.604492%)" offset="0.597656"/><stop stop-opacity="1" stop-color="rgb(21.221924%, 37.249756%, 69.40918%)" offset="0.601562"/><stop stop-opacity="1" stop-color="rgb(21.200562%, 37.036133%, 69.213867%)" offset="0.605469"/><stop stop-opacity="1" stop-color="rgb(21.179199%, 36.82251%, 69.018555%)" offset="0.609375"/><stop stop-opacity="1" stop-color="rgb(21.179199%, 36.636353%, 68.823242%)" offset="0.617187"/><stop stop-opacity="1" stop-color="rgb(21.179199%, 36.265564%, 68.629456%)" offset="0.625"/><stop stop-opacity="1" stop-color="rgb(21.179199%, 35.89325%, 68.443298%)" offset="0.632812"/><stop stop-opacity="1" stop-color="rgb(21.179199%, 35.517883%, 68.247986%)" offset="0.640625"/><stop stop-opacity="1" stop-color="rgb(20.979309%, 35.287476%, 68.03894%)" offset="0.644531"/><stop stop-opacity="1" stop-color="rgb(20.779419%, 35.247803%, 67.83905%)" offset="0.648437"/><stop stop-opacity="1" stop-color="rgb(20.779419%, 35.061646%, 67.826843%)" offset="0.65625"/><stop stop-opacity="1" stop-color="rgb(20.779419%, 34.692383%, 67.631531%)" offset="0.664062"/><stop stop-opacity="1" stop-color="rgb(20.779419%, 34.320068%, 67.449951%)" offset="0.671875"/><stop stop-opacity="1" stop-color="rgb(20.584106%, 33.946228%, 67.254639%)" offset="0.679687"/><stop stop-opacity="1" stop-color="rgb(20.388794%, 33.744812%, 66.864014%)" offset="0.6875"/><stop stop-opacity="1" stop-color="rgb(20.388794%, 33.514404%, 66.468811%)" offset="0.691406"/><stop stop-opacity="1" stop-color="rgb(20.388794%, 33.299255%, 66.268921%)" offset="0.695312"/><stop stop-opacity="1" stop-color="rgb(20.38269%, 33.113098%, 66.262817%)" offset="0.703125"/><stop stop-opacity="1" stop-color="rgb(20.188904%, 32.737732%, 66.069031%)" offset="0.710937"/><stop stop-opacity="1" stop-color="rgb(19.999695%, 32.365417%, 65.879822%)" offset="0.71875"/><stop stop-opacity="1" stop-color="rgb(19.999695%, 31.993103%, 65.684509%)" offset="0.726562"/><stop stop-opacity="1" stop-color="rgb(19.981384%, 31.762695%, 65.293884%)" offset="0.734375"/><stop stop-opacity="1" stop-color="rgb(19.786072%, 31.536865%, 65.089417%)" offset="0.742187"/><stop stop-opacity="1" stop-color="rgb(19.60907%, 31.166077%, 64.89563%)" offset="0.75"/><stop stop-opacity="1" stop-color="rgb(19.60907%, 30.793762%, 64.518738%)" offset="0.757812"/><stop stop-opacity="1" stop-color="rgb(19.60907%, 30.421448%, 64.318848%)" offset="0.765625"/><stop stop-opacity="1" stop-color="rgb(19.587708%, 30.01709%, 64.11438%)" offset="0.769531"/><stop stop-opacity="1" stop-color="rgb(19.567871%, 29.798889%, 63.919067%)" offset="0.773437"/><stop stop-opacity="1" stop-color="rgb(19.393921%, 29.786682%, 63.90686%)" offset="0.78125"/><stop stop-opacity="1" stop-color="rgb(19.219971%, 29.592896%, 63.713074%)" offset="0.789062"/><stop stop-opacity="1" stop-color="rgb(19.219971%, 29.220581%, 63.529968%)" offset="0.796875"/><stop stop-opacity="1" stop-color="rgb(19.219971%, 29.025269%, 63.334656%)" offset="0.804687"/><stop stop-opacity="1" stop-color="rgb(19.219971%, 28.823853%, 62.968445%)" offset="0.8125"/><stop stop-opacity="1" stop-color="rgb(19.018555%, 28.417969%, 62.757874%)" offset="0.816406"/><stop stop-opacity="1" stop-color="rgb(18.818665%, 28.208923%, 62.718201%)" offset="0.820312"/><stop stop-opacity="1" stop-color="rgb(18.818665%, 28.024292%, 62.527466%)" offset="0.828125"/><stop stop-opacity="1" stop-color="rgb(18.818665%, 27.644348%, 62.149048%)" offset="0.84375"/><stop stop-opacity="1" stop-color="rgb(18.644714%, 27.253723%, 61.764526%)" offset="0.851562"/><stop stop-opacity="1" stop-color="rgb(18.450928%, 26.864624%, 61.550903%)" offset="0.859375"/><stop stop-opacity="1" stop-color="rgb(18.429565%, 26.660156%, 61.355591%)" offset="0.867187"/><stop stop-opacity="1" stop-color="rgb(18.429565%, 26.460266%, 61.178589%)" offset="0.875"/><stop stop-opacity="1" stop-color="rgb(18.429565%, 26.074219%, 60.978699%)" offset="0.878906"/><stop stop-opacity="1" stop-color="rgb(18.429565%, 25.878906%, 60.778809%)" offset="0.882812"/><stop stop-opacity="1" stop-color="rgb(18.429565%, 25.683594%, 60.601807%)" offset="0.890625"/><stop stop-opacity="1" stop-color="rgb(18.234253%, 25.294495%, 60.386658%)" offset="0.898438"/><stop stop-opacity="1" stop-color="rgb(18.03894%, 25.086975%, 60.173035%)" offset="0.90625"/><stop stop-opacity="1" stop-color="rgb(18.03894%, 24.891663%, 59.803772%)" offset="0.914062"/><stop stop-opacity="1" stop-color="rgb(18.03894%, 24.514771%, 59.609985%)" offset="0.921875"/><stop stop-opacity="1" stop-color="rgb(18.03894%, 24.31488%, 59.429932%)" offset="0.929688"/><stop stop-opacity="1" stop-color="rgb(17.868042%, 24.113464%, 59.234619%)" offset="0.9375"/><stop stop-opacity="1" stop-color="rgb(17.674255%, 23.724365%, 59.01947%)" offset="0.941406"/><stop stop-opacity="1" stop-color="rgb(17.649841%, 23.529053%, 58.81958%)" offset="0.945312"/><stop stop-opacity="1" stop-color="rgb(17.649841%, 23.33374%, 58.624268%)" offset="0.953125"/><stop stop-opacity="1" stop-color="rgb(17.462158%, 22.944641%, 58.24585%)" offset="0.96875"/><stop stop-opacity="1" stop-color="rgb(17.260742%, 22.570801%, 58.052063%)" offset="0.976562"/><stop stop-opacity="1" stop-color="rgb(17.248535%, 22.370911%, 57.844543%)" offset="0.984375"/><stop stop-opacity="1" stop-color="rgb(17.248535%, 22.154236%, 57.640076%)" offset="0.992188"/><stop stop-opacity="1" stop-color="rgb(17.248535%, 21.958923%, 57.440186%)" offset="1"/></linearGradient></defs><g clip-path="url(#eb10ab5f37)"><g clip-path="url(#ebaa3d0003)"><g clip-path="url(#77a2b87ef9)"><path fill="url(#1c55ea85be)" d="M 5.996094 6.019531 L 5.996094 29.242188 L 77.957031 29.242188 L 77.957031 6.019531 Z M 5.996094 6.019531 " fill-rule="nonzero"/></g></g></g><g clip-path="url(#718578c5b1)"><g clip-path="url(#9bfde7d9c1)"><g clip-path="url(#fdd7557384)"><path fill="url(#c777bc0892)" d="M 31.597656 7.160156 L 31.597656 28.105469 L 52.359375 28.105469 L 52.359375 7.160156 Z M 31.597656 7.160156 " fill-rule="nonzero"/></g></g></g><g fill="#225aa5" fill-opacity="1"><g transform="translate(37.935258, 21.317884)"><g><path d="M 7.375 -7.84375 L 7.375 -2.765625 C 7.375 -2.191406 7.242188 -1.6875 6.984375 -1.25 C 6.722656 -0.8125 6.347656 -0.472656 5.859375 -0.234375 C 5.367188 -0.00390625 4.789062 0.109375 4.125 0.109375 C 3.113281 0.109375 2.328125 -0.144531 1.765625 -0.65625 C 1.210938 -1.175781 0.9375 -1.882812 0.9375 -2.78125 L 0.9375 -7.84375 L 2.59375 -7.84375 L 2.59375 -3.046875 C 2.59375 -2.441406 2.710938 -1.992188 2.953125 -1.703125 C 3.191406 -1.421875 3.59375 -1.28125 4.15625 -1.28125 C 4.707031 -1.28125 5.101562 -1.421875 5.34375 -1.703125 C 5.59375 -1.992188 5.71875 -2.441406 5.71875 -3.046875 L 5.71875 -7.84375 Z M 7.375 -7.84375 "/></g></g></g><g fill="#225aa5" fill-opacity="1"><g transform="translate(12.528458, 38.09568)"><g><path d="M 6.03125 -6.421875 L 6.03125 -2.265625 C 6.03125 -1.796875 5.925781 -1.378906 5.71875 -1.015625 C 5.507812 -0.660156 5.203125 -0.382812 4.796875 -0.1875 C 4.398438 0 3.925781 0.09375 3.375 0.09375 C 2.550781 0.09375 1.910156 -0.117188 1.453125 -0.546875 C 0.992188 -0.972656 0.765625 -1.550781 0.765625 -2.28125 L 0.765625 -6.421875 L 2.125 -6.421875 L 2.125 -2.484375 C 2.125 -1.992188 2.222656 -1.632812 2.421875 -1.40625 C 2.617188 -1.175781 2.945312 -1.0625 3.40625 -1.0625 C 3.851562 -1.0625 4.175781 -1.175781 4.375 -1.40625 C 4.582031 -1.632812 4.6875 -2 4.6875 -2.5 L 4.6875 -6.421875 Z M 6.03125 -6.421875 "/></g></g><g transform="translate(19.327564, 38.09568)"><g><path d="M 3.28125 0 L 1.921875 0 L 1.921875 -5.296875 L 0.1875 -5.296875 L 0.1875 -6.421875 L 5.03125 -6.421875 L 5.03125 -5.296875 L 3.28125 -5.296875 Z M 3.28125 0 "/></g></g><g transform="translate(24.536698, 38.09568)"><g><path d="M 6.078125 0 L 4.71875 0 L 4.71875 -2.765625 L 2.171875 -2.765625 L 2.171875 0 L 0.8125 0 L 0.8125 -6.421875 L 2.171875 -6.421875 L 2.171875 -3.90625 L 4.71875 -3.90625 L 4.71875 -6.421875 L 6.078125 -6.421875 Z M 6.078125 0 "/></g></g><g transform="translate(31.419255, 38.09568)"><g><path d="M 2.8125 -3.78125 L 4.15625 -6.421875 L 5.609375 -6.421875 L 3.484375 -2.5 L 3.484375 0 L 2.125 0 L 2.125 -2.453125 L 0 -6.421875 L 1.484375 -6.421875 Z M 2.8125 -3.78125 "/></g></g><g transform="translate(37.03247, 38.09568)"><g/></g><g transform="translate(39.369114, 38.09568)"><g><path d="M 0.8125 -6.421875 L 2.8125 -6.421875 C 3.71875 -6.421875 4.375 -6.289062 4.78125 -6.03125 C 5.195312 -5.769531 5.40625 -5.359375 5.40625 -4.796875 C 5.40625 -4.410156 5.316406 -4.09375 5.140625 -3.84375 C 4.960938 -3.601562 4.722656 -3.457031 4.421875 -3.40625 L 4.421875 -3.359375 C 4.828125 -3.273438 5.117188 -3.109375 5.296875 -2.859375 C 5.484375 -2.609375 5.578125 -2.273438 5.578125 -1.859375 C 5.578125 -1.273438 5.363281 -0.816406 4.9375 -0.484375 C 4.507812 -0.160156 3.9375 0 3.21875 0 L 0.8125 0 Z M 2.171875 -3.875 L 2.96875 -3.875 C 3.332031 -3.875 3.597656 -3.929688 3.765625 -4.046875 C 3.929688 -4.160156 4.015625 -4.351562 4.015625 -4.625 C 4.015625 -4.863281 3.921875 -5.035156 3.734375 -5.140625 C 3.554688 -5.253906 3.273438 -5.3125 2.890625 -5.3125 L 2.171875 -5.3125 Z M 2.171875 -2.796875 L 2.171875 -1.125 L 3.0625 -1.125 C 3.4375 -1.125 3.710938 -1.195312 3.890625 -1.34375 C 4.066406 -1.488281 4.15625 -1.707031 4.15625 -2 C 4.15625 -2.53125 3.773438 -2.796875 3.015625 -2.796875 Z M 2.171875 -2.796875 "/></g></g><g transform="translate(45.412763, 38.09568)"><g><path d="M 6.03125 -6.421875 L 6.03125 -2.265625 C 6.03125 -1.796875 5.925781 -1.378906 5.71875 -1.015625 C 5.507812 -0.660156 5.203125 -0.382812 4.796875 -0.1875 C 4.398438 0 3.925781 0.09375 3.375 0.09375 C 2.550781 0.09375 1.910156 -0.117188 1.453125 -0.546875 C 0.992188 -0.972656 0.765625 -1.550781 0.765625 -2.28125 L 0.765625 -6.421875 L 2.125 -6.421875 L 2.125 -2.484375 C 2.125 -1.992188 2.222656 -1.632812 2.421875 -1.40625 C 2.617188 -1.175781 2.945312 -1.0625 3.40625 -1.0625 C 3.851562 -1.0625 4.175781 -1.175781 4.375 -1.40625 C 4.582031 -1.632812 4.6875 -2 4.6875 -2.5 L 4.6875 -6.421875 Z M 6.03125 -6.421875 "/></g></g><g transform="translate(52.211869, 38.09568)"><g><path d="M 0.8125 0 L 0.8125 -6.421875 L 2.171875 -6.421875 L 2.171875 0 Z M 0.8125 0 "/></g></g><g transform="translate(55.189772, 38.09568)"><g><path d="M 0.8125 0 L 0.8125 -6.421875 L 2.171875 -6.421875 L 2.171875 -1.125 L 4.78125 -1.125 L 4.78125 0 Z M 0.8125 0 "/></g></g><g transform="translate(60.271533, 38.09568)"><g><path d="M 6.140625 -3.28125 C 6.140625 -2.21875 5.835938 -1.40625 5.234375 -0.84375 C 4.628906 -0.28125 3.757812 0 2.625 0 L 0.8125 0 L 0.8125 -6.421875 L 2.828125 -6.421875 C 3.878906 -6.421875 4.691406 -6.144531 5.265625 -5.59375 C 5.847656 -5.039062 6.140625 -4.269531 6.140625 -3.28125 Z M 4.71875 -3.234375 C 4.71875 -4.617188 4.109375 -5.3125 2.890625 -5.3125 L 2.171875 -5.3125 L 2.171875 -1.125 L 2.75 -1.125 C 4.0625 -1.125 4.71875 -1.828125 4.71875 -3.234375 Z M 4.71875 -3.234375 "/></g></g><g transform="translate(66.930088, 38.09568)"><g><path d="M 4.59375 -1.78125 C 4.59375 -1.207031 4.382812 -0.75 3.96875 -0.40625 C 3.550781 -0.0703125 2.972656 0.09375 2.234375 0.09375 C 1.546875 0.09375 0.9375 -0.0351562 0.40625 -0.296875 L 0.40625 -1.5625 C 0.84375 -1.375 1.210938 -1.238281 1.515625 -1.15625 C 1.816406 -1.070312 2.09375 -1.03125 2.34375 -1.03125 C 2.632812 -1.03125 2.859375 -1.085938 3.015625 -1.203125 C 3.179688 -1.316406 3.265625 -1.488281 3.265625 -1.71875 C 3.265625 -1.84375 3.226562 -1.953125 3.15625 -2.046875 C 3.082031 -2.148438 2.976562 -2.242188 2.84375 -2.328125 C 2.707031 -2.421875 2.429688 -2.566406 2.015625 -2.765625 C 1.617188 -2.953125 1.320312 -3.128906 1.125 -3.296875 C 0.9375 -3.472656 0.78125 -3.671875 0.65625 -3.890625 C 0.539062 -4.117188 0.484375 -4.382812 0.484375 -4.6875 C 0.484375 -5.257812 0.675781 -5.707031 1.0625 -6.03125 C 1.445312 -6.351562 1.976562 -6.515625 2.65625 -6.515625 C 3 -6.515625 3.320312 -6.472656 3.625 -6.390625 C 3.925781 -6.316406 4.242188 -6.207031 4.578125 -6.0625 L 4.125 -5 C 3.78125 -5.144531 3.492188 -5.242188 3.265625 -5.296875 C 3.046875 -5.359375 2.832031 -5.390625 2.625 -5.390625 C 2.363281 -5.390625 2.160156 -5.328125 2.015625 -5.203125 C 1.878906 -5.078125 1.8125 -4.921875 1.8125 -4.734375 C 1.8125 -4.609375 1.835938 -4.5 1.890625 -4.40625 C 1.953125 -4.320312 2.039062 -4.238281 2.15625 -4.15625 C 2.28125 -4.070312 2.570312 -3.921875 3.03125 -3.703125 C 3.632812 -3.421875 4.046875 -3.132812 4.265625 -2.84375 C 4.484375 -2.550781 4.59375 -2.195312 4.59375 -1.78125 Z M 4.59375 -1.78125 "/></g></g></g></svg>