<svg xmlns="http://www.w3.org/2000/svg" xmlns:xlink="http://www.w3.org/1999/xlink" width="206" zoomAndPan="magnify" viewBox="0 0 154.5 32.249999" height="43" preserveAspectRatio="xMidYMid meet" version="1.0"><defs><g/><clipPath id="aa1fb96a5a"><path d="M 84.851562 4.34375 L 92.167969 4.34375 L 92.167969 21.628906 L 84.851562 21.628906 Z M 84.851562 4.34375 " clip-rule="nonzero"/></clipPath><clipPath id="bbdd7f8c94"><path d="M 0.851562 0.34375 L 8.167969 0.34375 L 8.167969 17.628906 L 0.851562 17.628906 Z M 0.851562 0.34375 " clip-rule="nonzero"/></clipPath><clipPath id="43ecebc413"><rect x="0" width="9" y="0" height="18"/></clipPath><clipPath id="a2292ef8c9"><path d="M 1 3 L 9.347656 3 L 9.347656 12 L 1 12 Z M 1 3 " clip-rule="nonzero"/></clipPath><clipPath id="29c3802af3"><rect x="0" width="10" y="0" height="17"/></clipPath><clipPath id="e8dd6246e4"><path d="M 84.851562 3.164062 L 93.582031 3.164062 L 93.582031 22.804688 L 84.851562 22.804688 Z M 84.851562 3.164062 " clip-rule="nonzero"/></clipPath><clipPath id="665d921053"><path d="M 0.851562 0.164062 L 9.582031 0.164062 L 9.582031 19.804688 L 0.851562 19.804688 Z M 0.851562 0.164062 " clip-rule="nonzero"/></clipPath><clipPath id="f51f1e27ef"><rect x="0" width="10" y="0" height="20"/></clipPath><clipPath id="2bfd3205ef"><path d="M 0.128906 3 L 8 3 L 8 12 L 0.128906 12 Z M 0.128906 3 " clip-rule="nonzero"/></clipPath><clipPath id="eb4f7dea5d"><rect x="0" width="9" y="0" height="16"/></clipPath><clipPath id="338af3b3b1"><path d="M 75.769531 16.316406 L 84.5 16.316406 L 84.5 26.09375 L 75.769531 26.09375 Z M 75.769531 16.316406 " clip-rule="nonzero"/></clipPath><clipPath id="9b9b1a5282"><path d="M 0.769531 0.316406 L 9.5 0.316406 L 9.5 10.09375 L 0.769531 10.09375 Z M 0.769531 0.316406 " clip-rule="nonzero"/></clipPath><clipPath id="e39b3840a3"><rect x="0" width="10" y="0" height="11"/></clipPath><clipPath id="9a53f61436"><path d="M 72 2 L 77 2 L 77 7 L 72 7 Z M 72 2 " clip-rule="nonzero"/></clipPath><clipPath id="cd0b90bfbc"><path d="M 72.441406 3.796875 L 73.878906 2.519531 L 76.363281 5.316406 L 74.921875 6.59375 Z M 72.441406 3.796875 " clip-rule="nonzero"/></clipPath><clipPath id="6b2601627d"><path d="M 0.34375 0.34375 L 4.566406 0.34375 L 4.566406 4.800781 L 0.34375 4.800781 Z M 0.34375 0.34375 " clip-rule="nonzero"/></clipPath><clipPath id="9c2a0cec75"><path d="M 0.441406 1.796875 L 1.878906 0.519531 L 4.363281 3.316406 L 2.921875 4.59375 Z M 0.441406 1.796875 " clip-rule="nonzero"/></clipPath><clipPath id="df2a6f97b5"><rect x="0" width="5" y="0" height="5"/></clipPath><clipPath id="b60ff9656c"><path d="M 81 24 L 86 24 L 86 29 L 81 29 Z M 81 24 " clip-rule="nonzero"/></clipPath><clipPath id="9e7a9afe8b"><path d="M 81.910156 26.199219 L 83.351562 24.921875 L 85.832031 27.71875 L 84.390625 28.996094 Z M 81.910156 26.199219 " clip-rule="nonzero"/></clipPath><clipPath id="c1055b4170"><path d="M 0.726562 0.863281 L 4.949219 0.863281 L 4.949219 5 L 0.726562 5 Z M 0.726562 0.863281 " clip-rule="nonzero"/></clipPath><clipPath id="96ad5a82c2"><path d="M 0.910156 2.199219 L 2.351562 0.921875 L 4.832031 3.71875 L 3.390625 4.996094 Z M 0.910156 2.199219 " clip-rule="nonzero"/></clipPath><clipPath id="2f35feca4d"><rect x="0" width="5" y="0" height="5"/></clipPath></defs><g clip-path="url(#aa1fb96a5a)"><g transform="matrix(1, 0, 0, 1, 84, 4)"><g clip-path="url(#43ecebc413)"><g clip-path="url(#bbdd7f8c94)"><path fill="#919191" d="M 0.851562 0.34375 L 8.167969 0.34375 L 8.167969 17.632812 L 0.851562 17.632812 Z M 0.851562 0.34375 " fill-opacity="1" fill-rule="nonzero"/></g></g></g></g><g transform="matrix(1, 0, 0, 1, 6, 1)"><g clip-path="url(#29c3802af3)"><g clip-path="url(#a2292ef8c9)"><g fill="#545454" fill-opacity="1"><g transform="translate(1.057009, 11.448819)"><g><path d="M 0.125 -7.28125 L 1.140625 -7.28125 L 1.140625 -2.796875 C 1.160156 -0.859375 2.234375 0.113281 4.359375 0.125 C 5.722656 0.125 6.582031 -0.394531 6.9375 -1.4375 C 7.070312 -1.863281 7.140625 -2.375 7.140625 -2.96875 L 7.140625 -7.28125 L 8.15625 -7.28125 L 8.15625 -7.625 L 5.65625 -7.625 L 5.65625 -7.28125 L 6.671875 -7.28125 L 6.671875 -2.890625 C 6.660156 -1.140625 5.976562 -0.257812 4.625 -0.25 C 3.769531 -0.25 3.238281 -0.71875 3.03125 -1.65625 C 2.957031 -2 2.921875 -2.410156 2.921875 -2.890625 L 2.921875 -7.28125 L 3.9375 -7.28125 L 3.9375 -7.625 L 0.125 -7.625 Z M 0.125 -7.28125 "/></g></g></g></g></g></g><g clip-path="url(#e8dd6246e4)"><g transform="matrix(1, 0, 0, 1, 84, 3)"><g clip-path="url(#f51f1e27ef)"><g clip-path="url(#665d921053)"><path fill="#ffffff" d="M 0.851562 0.164062 L 9.582031 0.164062 L 9.582031 19.808594 L 0.851562 19.808594 Z M 0.851562 0.164062 " fill-opacity="1" fill-rule="nonzero"/></g></g></g></g><g transform="matrix(1, 0, 0, 1, 11, 7)"><g clip-path="url(#eb4f7dea5d)"><g clip-path="url(#2bfd3205ef)"><g fill="#545454" fill-opacity="1"><g transform="translate(0.167942, 11.254618)"><g><path d="M 6.921875 -5.90625 C 6.921875 -6.695312 6.488281 -7.21875 5.625 -7.46875 C 5.257812 -7.570312 4.84375 -7.625 4.375 -7.625 L 0.25 -7.625 L 0.25 -7.28125 L 1.265625 -7.28125 L 1.265625 -0.34375 L 0.25 -0.34375 L 0.25 0 L 4.59375 0 C 5.757812 0 6.601562 -0.34375 7.125 -1.03125 C 7.375 -1.382812 7.5 -1.773438 7.5 -2.203125 C 7.5 -3.140625 6.988281 -3.742188 5.96875 -4.015625 C 5.78125 -4.066406 5.582031 -4.101562 5.375 -4.125 C 6.132812 -4.375 6.625 -4.796875 6.84375 -5.390625 C 6.894531 -5.566406 6.921875 -5.738281 6.921875 -5.90625 Z M 3.65625 -7.28125 C 4.601562 -7.257812 5.078125 -6.769531 5.078125 -5.8125 C 5.078125 -5.007812 4.78125 -4.523438 4.1875 -4.359375 C 4.050781 -4.328125 3.910156 -4.3125 3.765625 -4.3125 L 3.046875 -4.3125 L 3.046875 -7.28125 Z M 4.09375 -3.953125 C 4.769531 -3.953125 5.21875 -3.632812 5.4375 -3 C 5.507812 -2.78125 5.546875 -2.539062 5.546875 -2.28125 C 5.546875 -1.132812 5.109375 -0.5 4.234375 -0.375 C 4.117188 -0.351562 4.007812 -0.34375 3.90625 -0.34375 L 3.046875 -0.34375 L 3.046875 -3.953125 Z M 4.09375 -3.953125 "/></g></g></g></g></g></g><path stroke-linecap="butt" transform="matrix(0, -0.732954, 0.732954, 0, 13.786837, 26.092647)" fill="none" stroke-linejoin="miter" d="M -0.00150546 0.498676 L 33.675338 0.498676 " stroke="#545454" stroke-width="1" stroke-opacity="1" stroke-miterlimit="4"/><g clip-path="url(#338af3b3b1)"><g transform="matrix(1, 0, 0, 1, 75, 16)"><g clip-path="url(#e39b3840a3)"><g clip-path="url(#9b9b1a5282)"><path fill="#ffffff" d="M 0.769531 0.316406 L 9.5 0.316406 L 9.5 10.101562 L 0.769531 10.101562 Z M 0.769531 0.316406 " fill-opacity="1" fill-rule="nonzero"/></g></g></g></g><g clip-path="url(#9a53f61436)"><g clip-path="url(#cd0b90bfbc)"><g transform="matrix(1, 0, 0, 1, 72, 2)"><g clip-path="url(#df2a6f97b5)"><g clip-path="url(#6b2601627d)"><g clip-path="url(#9c2a0cec75)"><path fill="#ffffff" d="M 0.441406 1.796875 L 1.878906 0.519531 L 4.363281 3.316406 L 2.921875 4.59375 Z M 0.441406 1.796875 " fill-opacity="1" fill-rule="nonzero"/></g></g></g></g></g></g><g clip-path="url(#b60ff9656c)"><g clip-path="url(#9e7a9afe8b)"><g transform="matrix(1, 0, 0, 1, 81, 24)"><g clip-path="url(#2f35feca4d)"><g clip-path="url(#c1055b4170)"><g clip-path="url(#96ad5a82c2)"><path fill="#ffffff" d="M 0.910156 2.199219 L 2.351562 0.921875 L 4.832031 3.714844 L 3.390625 4.996094 Z M 0.910156 2.199219 " fill-opacity="1" fill-rule="nonzero"/></g></g></g></g></g></g></svg>